<svg
  enable-background="new 0 0 128 128"
  viewBox="0 0 128 128"
  xml:space="preserve"
  xmlns="http://www.w3.org/2000/svg"
  xmlns:xlink="http://www.w3.org/1999/xlink"
>
  <g>
    <g>
      <g>
        <path
          d="M96.8,26.1l-17.2-4.6c-7.2-1.9-14.9-0.9-21.3,2.8L11.5,51.1C4.3,55.2,1.9,64.4,6,71.6L22.5,100     c4.1,7.2,13.3,9.6,20.5,5.5l46.8-26.9c6.4-3.7,11.1-9.8,13.1-17l4.6-17.2C109.5,36.4,104.8,28.2,96.8,26.1z M93.9,46.9     c-3.9,0-7-3.1-7-7c0-3.9,3.1-7,7-7c3.9,0,7,3.1,7,7C100.9,43.8,97.7,46.9,93.9,46.9z"
          fill="#f58220"
        />
        <!--fon-->
      </g>
      <g>
        <path
          d="M35.5,108.8L35.5,108.8c-5.8,0-11.2-3.1-14.1-8.1L4.9,72.2c-2.2-3.8-2.8-8.2-1.6-12.4     c1.1-4.2,3.8-7.7,7.6-9.9l46.7-26.9c6.7-3.8,14.8-4.9,22.3-2.9l17.2,4.6c8.6,2.3,13.8,11.2,11.5,19.9L104,61.9     c-2,7.4-7,13.9-13.6,17.8l-46.8,26.9C41.1,108,38.3,108.8,35.5,108.8z M72.2,21.7c-4.7,0-9.3,1.2-13.4,3.6L12.1,52.2     C9,54,6.7,57,5.7,60.5c-1,3.6-0.5,7.3,1.4,10.5l16.5,28.4c2.5,4.2,7,6.9,11.9,6.9c2.4,0,4.8-0.6,6.8-1.8l46.8-26.9     c6.1-3.5,10.7-9.4,12.5-16.2l4.6-17.2c1.9-7.3-2.4-14.8-9.7-16.8l-17.2-4.6C76.9,22,74.6,21.7,72.2,21.7z M93.9,48.2     c-4.5,0-8.2-3.7-8.2-8.2s3.7-8.2,8.2-8.2s8.2,3.7,8.2,8.2S98.4,48.2,93.9,48.2z M93.9,34.2c-3.2,0-5.8,2.6-5.8,5.7     s2.6,5.7,5.8,5.7s5.8-2.6,5.8-5.7S97,34.2,93.9,34.2z"
          fill="#58585a"
        />
      </g>
      <g>
        <g>
          <g>
            <path
              d="M40.3,94.4c-5.4,0-9.9-4-10.5-9.4c-0.3-2.8,0.5-5.5,2.3-7.7c1.8-2.2,4.3-3.6,7.1-3.9       c5.9-0.6,11,3.6,11.6,9.3c0.3,2.8-0.5,5.5-2.3,7.7c-1.8,2.2-4.3,3.6-7.1,3.9C41,94.4,40.6,94.4,40.3,94.4z M40.3,78.4       c-0.2,0-0.4,0-0.6,0c-1.5,0.2-2.8,0.9-3.7,2c-0.9,1.1-1.3,2.6-1.2,4c0.3,3,3,5.2,6.1,4.9c1.5-0.2,2.8-0.9,3.7-2       c0.9-1.1,1.4-2.6,1.2-4C45.5,80.5,43.1,78.4,40.3,78.4z"
              fill="#FAF9F8"
            />
          </g>
          <g>
            <path
              d="M50.4,62.5c-5.4,0-9.9-4-10.5-9.4c-0.3-2.8,0.5-5.5,2.3-7.7c1.8-2.2,4.3-3.6,7.1-3.9       c5.8-0.6,11,3.6,11.6,9.3c0.3,2.8-0.5,5.5-2.3,7.7c-1.8,2.2-4.3,3.6-7.1,3.9C51.1,62.5,50.8,62.5,50.4,62.5z M50.4,46.5       c-0.2,0-0.4,0-0.6,0c-1.5,0.2-2.8,0.9-3.7,2c-0.9,1.1-1.4,2.6-1.2,4c0.3,3,3,5.2,6.1,4.9c1.5-0.2,2.8-0.9,3.7-2       c0.9-1.1,1.4-2.6,1.2-4C55.6,48.6,53.2,46.5,50.4,46.5z"
              fill="#FAF9F8"
            />
          </g>
        </g>
        <g>
          <path
            d="M68.9,73.2c-0.1,0-0.2,0-0.3,0l-47.1-5.4c-1.4-0.2-2.4-1.4-2.2-2.8c0.2-1.4,1.4-2.4,2.8-2.2l47.1,5.4      c1.4,0.2,2.4,1.4,2.2,2.8C71.2,72.2,70.1,73.2,68.9,73.2z"
            fill="#FAF9F8"
          />
        </g>
      </g>
    </g>
    <g>
      <g>
        <path
          d="M118.9,50l-25.1-5.7c-2.3-0.5-3.7-2.7-3.2-5v0c0.5-2.3,2.7-3.7,5-3.2l25.1,5.7c2.3,0.5,3.7,2.7,3.2,5l0,0     C123.4,49,121.2,50.5,118.9,50z"
          fill="#FFFFFF"
        />
      </g>
      <g>
        <path
          d="M119.8,51.3c-0.4,0-0.8,0-1.1-0.1l-25.1-5.7c-1.4-0.3-2.6-1.1-3.4-2.4c-0.8-1.2-1.1-2.7-0.8-4.1     c0.5-2.5,2.8-4.3,5.3-4.3c0.4,0,0.8,0,1.1,0.1l25.1,5.7c1.4,0.3,2.6,1.1,3.4,2.4c0.8,1.2,1.1,2.7,0.8,4.1     C124.6,49.5,122.4,51.3,119.8,51.3z M94.7,37.3c-1.4,0-2.6,1-2.9,2.3c-0.2,0.8,0,1.5,0.4,2.2c0.4,0.7,1.1,1.1,1.9,1.3l25.1,5.7     c0.2,0,0.4,0.1,0.6,0.1c1.4,0,2.6-1,2.9-2.3c0.2-0.8,0-1.5-0.4-2.2c-0.4-0.7-1.1-1.1-1.9-1.3l-25.1-5.7     C95.1,37.3,94.9,37.3,94.7,37.3z"
          fill="#58585a"
        />
      </g>
    </g>
  </g>
</svg>
